<?xml version="1.0" standalone="no"?>
<!DOCTYPE svg PUBLIC "-//W3C//DTD SVG 20010904//EN"
 "http://www.w3.org/TR/2001/REC-SVG-20010904/DTD/svg10.dtd">
<svg version="1.0" xmlns="http://www.w3.org/2000/svg"
 width="512.000000pt" height="512.000000pt" viewBox="0 0 512.000000 512.000000"
 preserveAspectRatio="xMidYMid meet">
<metadata>
Created by potrace 1.14, written by Peter Selinger 2001-2017
</metadata>
<g transform="translate(0.000000,512.000000) scale(0.100000,-0.100000)"
fill="#000000" stroke="none">
<path d="M3433 4858 c3 -9 1 -19 -6 -22 -7 -2 -5 -5 5 -5 24 -1 29 12 10 29
-14 13 -15 12 -9 -2z"/>
<path d="M3441 4808 c-8 -12 -15 -35 -16 -51 -2 -15 -5 -31 -8 -34 -4 -3 -2
-15 4 -26 9 -15 8 -18 -2 -12 -9 6 -11 2 -7 -13 4 -12 3 -22 -1 -22 -4 0 -7
-15 -6 -32 0 -18 -3 -38 -7 -44 -7 -10 -15 -48 -20 -91 -1 -7 -4 -13 -8 -13
-3 0 -6 -8 -7 -17 -1 -18 -10 -56 -13 -60 -2 -2 -4 -7 -5 -13 -1 -5 -4 -13 -5
-17 -1 -5 -2 -11 -1 -15 0 -5 -3 -8 -8 -8 -6 0 -8 -9 -6 -20 2 -11 0 -20 -5
-20 -8 0 -27 -45 -19 -45 2 0 -6 -13 -18 -29 -13 -16 -20 -33 -16 -39 3 -6 1
-7 -5 -3 -7 4 -12 1 -12 -8 0 -9 -4 -16 -10 -16 -5 0 -10 -7 -10 -15 0 -7 -8
-18 -17 -24 -10 -5 -17 -12 -15 -16 2 -3 -20 -28 -48 -55 -27 -28 -50 -47 -50
-42 0 4 -6 0 -13 -8 -16 -20 -84 -64 -124 -81 -17 -7 -30 -17 -27 -21 2 -4 -5
-5 -16 -3 -11 2 -20 -1 -20 -6 0 -6 -4 -7 -10 -4 -5 3 -10 1 -10 -6 0 -6 -8
-9 -19 -6 -11 3 -22 0 -24 -7 -3 -6 -17 -12 -33 -14 -15 -1 -30 -6 -33 -11 -3
-4 -13 -9 -21 -9 -27 -3 -55 -9 -72 -16 -9 -4 -22 -5 -28 -1 -5 3 -10 1 -10
-6 0 -7 -3 -9 -7 -6 -3 4 -13 1 -21 -6 -13 -10 -15 -9 -8 3 6 12 4 11 -6 -1
-7 -9 -18 -14 -25 -12 -6 2 -14 0 -17 -5 -5 -9 -3 -10 54 -13 19 -1 40 -5 45
-9 10 -7 29 -10 73 -11 12 -1 22 -5 22 -10 0 -5 10 -9 23 -9 13 0 29 -6 36
-12 9 -8 12 -9 7 -1 -4 7 1 9 14 6 11 -3 20 -10 20 -16 0 -6 3 -7 7 -4 3 4 13
1 21 -6 13 -10 15 -9 8 3 -4 8 1 5 12 -8 14 -15 22 -18 25 -10 4 10 6 10 6 0
1 -7 6 -10 11 -7 6 3 10 1 10 -5 0 -6 4 -9 9 -6 5 3 14 -1 21 -9 7 -8 16 -12
21 -9 5 3 9 0 9 -5 0 -6 9 -11 21 -11 11 0 17 -4 14 -10 -3 -5 0 -10 8 -10 8
0 18 -7 21 -16 4 -9 9 -14 12 -11 4 3 20 -7 38 -23 17 -17 34 -30 39 -30 4 0
7 -5 7 -11 0 -7 10 -21 23 -33 27 -26 62 -78 59 -89 -1 -4 4 -10 12 -13 9 -3
12 -12 9 -21 -4 -11 -2 -14 5 -9 7 4 13 1 13 -8 3 -35 5 -41 16 -39 6 1 10 -8
8 -22 -1 -14 1 -25 4 -25 14 0 28 -48 18 -65 -5 -10 -5 -15 0 -12 5 3 15 2 23
-4 11 -6 12 -9 2 -9 -8 0 -10 -5 -5 -12 4 -7 9 -22 10 -33 2 -10 8 -22 14 -26
8 -5 8 -8 0 -13 -8 -5 -8 -13 -1 -26 6 -11 10 -23 9 -27 -4 -22 2 -34 14 -27
8 5 8 2 -2 -9 -7 -9 -9 -17 -4 -17 5 0 9 -18 9 -39 -1 -22 3 -37 8 -34 5 3 7
-6 4 -21 -3 -14 -2 -26 1 -26 4 0 6 -28 6 -62 -1 -35 4 -66 9 -70 7 -5 6 -12
-4 -19 -13 -9 -13 -10 0 -6 8 2 16 10 16 18 1 8 2 20 3 27 0 7 5 11 9 8 5 -3
9 1 9 9 0 8 -5 11 -10 8 -7 -4 -7 1 -2 13 8 21 13 46 14 82 1 16 5 21 14 16 8
-5 8 -2 -2 9 -7 10 -9 17 -3 17 6 0 9 11 7 25 -1 14 1 25 5 25 4 0 6 11 5 25
-2 14 1 25 6 25 5 0 9 13 9 29 0 17 5 33 11 37 8 4 7 9 -2 15 -12 7 -12 9 0 9
7 0 11 6 8 14 -3 8 2 17 11 21 14 5 14 7 2 15 -8 6 -10 10 -5 10 6 0 16 9 23
21 11 17 11 20 0 13 -10 -6 -11 -5 -1 8 7 8 10 18 6 21 -3 4 -1 7 6 7 7 0 9 5
6 10 -3 6 1 13 9 16 9 3 14 10 11 14 -7 12 40 91 49 83 4 -5 6 -3 5 2 -4 14
30 75 42 75 6 0 7 5 3 12 -5 8 -2 9 12 4 10 -4 15 -4 12 0 -10 10 11 46 23 39
5 -4 8 -3 7 2 -3 8 37 53 48 53 3 0 19 14 37 30 18 17 38 28 45 25 6 -2 12 3
12 11 0 8 4 13 9 10 5 -4 11 -3 13 1 4 10 121 68 131 65 4 -1 7 3 7 10 0 6 3
9 6 5 3 -3 26 3 51 14 24 10 54 19 64 19 11 0 17 4 14 10 -3 6 1 7 9 4 9 -3
16 -1 16 5 0 6 7 8 15 5 9 -4 15 0 15 7 0 11 3 11 10 -1 7 -11 10 -11 10 -2 0
7 5 10 10 7 6 -3 10 0 10 7 0 9 3 9 10 -2 8 -12 10 -10 10 9 0 13 -3 21 -7 18
-3 -4 -13 -1 -21 6 -13 10 -15 9 -8 -3 6 -13 6 -13 -6 0 -7 9 -20 15 -28 15
-8 -1 -24 6 -34 14 -13 11 -17 12 -11 2 6 -10 2 -11 -16 -6 -13 4 -25 12 -27
16 -2 5 -15 9 -28 9 -13 0 -24 5 -24 12 0 6 -3 8 -7 5 -3 -4 -15 1 -26 10 -13
12 -17 13 -12 4 5 -8 -7 -4 -25 9 -18 13 -30 17 -25 9 8 -12 6 -12 -8 0 -9 7
-14 17 -11 22 3 5 2 9 -3 8 -4 -1 -11 0 -15 1 -5 1 -11 3 -15 5 -29 8 -51 22
-71 44 -13 14 -20 19 -16 11 3 -8 -14 7 -40 34 -25 27 -46 53 -46 58 0 5 -3 7
-7 5 -5 -3 -19 11 -33 30 -14 19 -33 43 -42 53 -9 10 -14 21 -10 24 3 3 0 6
-7 6 -7 0 -10 4 -7 8 3 5 -4 19 -15 31 -12 12 -18 29 -15 37 3 8 1 12 -4 9 -5
-3 -13 7 -16 22 -4 15 -16 42 -27 60 -10 18 -17 40 -14 47 3 8 -1 17 -9 20 -8
3 -14 16 -14 30 0 13 -6 36 -14 51 -8 15 -12 33 -10 40 3 7 1 16 -5 20 -6 3
-11 17 -11 30 0 13 -4 26 -9 29 -5 4 -8 17 -6 31 1 14 -1 25 -5 25 -5 0 -7 13
-6 29 1 17 -2 28 -6 25 -8 -5 -12 22 -8 64 2 28 -11 28 -29 0z"/>
<path d="M1325 3806 c1 -12 -3 -27 -9 -35 -8 -11 -8 -15 1 -18 8 -3 9 -12 3
-27 -5 -13 -7 -35 -6 -49 2 -15 -1 -24 -6 -21 -5 3 -7 -6 -4 -20 3 -14 0 -26
-5 -26 -5 0 -7 -11 -3 -25 4 -14 2 -25 -4 -25 -6 0 -9 -8 -7 -17 1 -10 -4 -30
-11 -44 -7 -15 -10 -29 -7 -33 4 -3 0 -6 -8 -6 -11 0 -11 -2 1 -10 12 -8 12
-10 -5 -11 -11 0 -14 -3 -7 -6 6 -2 12 -9 12 -14 0 -6 -4 -7 -10 -4 -9 5 -12
-8 -9 -31 0 -4 -4 -10 -9 -13 -5 -3 -17 -23 -26 -44 -10 -25 -20 -36 -27 -31
-7 4 -9 3 -5 -4 3 -6 -1 -18 -10 -26 -8 -9 -13 -16 -10 -16 5 0 -50 -54 -94
-92 -32 -27 -72 -50 -65 -37 3 8 0 6 -8 -3 -8 -10 -22 -18 -31 -18 -11 0 -14
-5 -10 -12 5 -7 2 -9 -9 -5 -8 3 -21 0 -27 -8 -6 -7 -20 -12 -31 -10 -11 2
-17 0 -14 -6 4 -5 -3 -10 -14 -10 -20 -1 -32 -4 -48 -9 -13 -4 -27 -7 -41 -8
-7 -1 -10 -7 -6 -13 5 -8 1 -8 -13 0 -14 7 -23 7 -31 -1 -16 -16 -15 -29 1
-26 6 1 21 -1 32 -5 11 -3 32 -8 47 -11 15 -3 33 -8 40 -12 7 -4 23 -9 36 -10
13 -2 29 -7 35 -12 7 -5 20 -8 30 -7 10 2 17 -3 17 -12 0 -10 6 -14 18 -11 10
3 23 0 29 -6 24 -22 43 -36 48 -36 21 1 25 -2 25 -16 0 -8 4 -13 8 -10 10 6
52 -39 52 -56 0 -6 3 -8 7 -5 6 7 32 -23 29 -33 0 -3 9 -16 22 -30 21 -22 26
-34 23 -52 0 -5 4 -8 9 -8 6 0 10 -5 10 -12 0 -6 8 -20 18 -31 9 -11 11 -17 5
-13 -7 4 -13 2 -13 -3 0 -6 4 -11 10 -11 5 0 9 -3 9 -7 -4 -22 2 -33 14 -27 8
5 8 2 -2 -9 -11 -13 -11 -17 -1 -17 8 0 10 -3 7 -7 -4 -3 -1 -13 6 -21 10 -13
9 -14 -3 -7 -13 8 -13 6 -1 -8 7 -9 11 -24 7 -32 -3 -9 -2 -13 3 -10 6 3 10
-7 11 -22 2 -54 4 -73 10 -73 3 0 5 -13 4 -30 -1 -17 2 -30 7 -30 11 0 7 -23
-6 -32 -6 -5 -5 -8 3 -8 6 0 12 -5 12 -11 0 -5 -5 -7 -11 -3 -8 5 -8 1 0 -13
6 -11 7 -23 4 -27 -3 -3 -2 -6 4 -6 6 0 14 7 17 16 3 8 2 12 -4 9 -6 -3 -10
-2 -10 3 0 6 7 12 15 16 8 3 12 12 9 20 -3 8 -1 23 5 33 5 11 6 25 1 33 -5 9
-5 19 1 27 6 7 8 17 4 23 -3 5 2 10 12 11 10 0 13 3 7 5 -13 6 -6 54 8 54 6 0
6 6 -1 14 -9 11 -8 18 4 30 9 9 13 20 10 26 -3 5 -1 10 4 10 6 0 10 3 10 8 -1
7 0 11 6 30 2 4 6 17 10 30 4 12 12 22 19 22 6 0 4 5 -4 10 -10 7 -11 10 -2
10 7 0 17 11 22 25 5 14 14 25 20 25 6 0 9 4 6 9 -3 4 3 19 14 31 11 12 17 27
13 33 -3 6 -1 7 5 3 7 -4 12 -2 12 4 0 6 5 8 10 5 6 -3 10 0 10 7 0 7 12 22
26 32 14 11 37 30 52 43 25 22 36 26 47 21 2 -2 10 6 18 16 9 12 19 16 27 11
9 -5 11 -4 6 3 -5 8 0 12 13 12 10 0 21 5 23 10 2 6 13 12 25 13 12 0 19 5 17
9 -3 4 5 9 18 10 13 0 29 2 36 2 7 1 16 6 20 11 6 9 18 14 47 19 6 1 16 6 24
10 11 7 12 6 6 -5 -7 -11 -5 -11 9 1 11 8 14 16 7 18 -6 2 -8 8 -5 14 4 6 -2
6 -14 -1 -14 -7 -23 -8 -27 -1 -4 6 -10 8 -15 5 -4 -3 -10 1 -13 9 -3 8 -16
12 -31 11 -14 -2 -26 1 -26 6 0 6 -4 8 -9 4 -5 -3 -12 -1 -16 4 -3 6 -12 8
-19 5 -7 -3 -16 2 -19 10 -4 9 -13 16 -22 16 -22 0 -72 32 -120 78 -14 13 -25
20 -25 16 0 -4 -11 5 -25 20 -14 15 -25 30 -25 34 0 4 -9 14 -20 22 -11 8 -20
20 -20 27 0 7 -3 13 -8 13 -4 0 -14 15 -21 33 -8 17 -22 38 -30 45 -13 11 -13
12 -1 6 13 -7 13 -5 2 9 -8 9 -10 22 -6 28 4 8 3 9 -4 5 -8 -5 -12 0 -12 13 0
12 -5 21 -11 21 -6 0 -9 7 -5 15 3 8 1 15 -5 15 -6 0 -8 9 -4 21 5 15 4 19 -4
15 -7 -5 -11 2 -11 18 0 14 -5 28 -10 31 -8 5 -8 11 0 20 7 9 6 16 -4 24 -8 7
-13 21 -11 32 3 12 0 17 -7 13 -7 -5 -9 4 -6 25 3 18 0 35 -5 38 -6 4 -7 1 -2
-7 5 -9 4 -11 -3 -6 -9 5 -9 13 -1 28 9 16 8 19 -2 13 -9 -6 -11 -2 -7 13 4
13 1 22 -5 22 -7 0 -5 5 3 10 11 7 11 10 2 10 -7 0 -11 4 -8 8 3 5 -1 9 -8 9
-7 0 -12 -10 -11 -21z"/>
<path d="M4310 3784 c0 -8 5 -12 10 -9 6 4 8 11 5 16 -9 14 -15 11 -15 -7z"/>
<path d="M2495 3361 c-3 -5 -1 -12 5 -16 5 -3 10 -14 10 -23 0 -15 -2 -15 -10
-2 -9 14 -12 -9 -13 -122 0 -16 -4 -28 -9 -28 -4 0 -8 -5 -8 -11 0 -5 6 -7 13
-3 8 6 8 3 -2 -9 -7 -9 -14 -38 -15 -64 -2 -27 -6 -55 -9 -63 -4 -8 -8 -33
-10 -56 -2 -23 -7 -46 -11 -53 -4 -6 -4 -15 -1 -21 3 -5 2 -10 -2 -10 -5 0 -9
-8 -10 -17 -1 -16 -9 -50 -13 -63 -1 -3 -2 -9 -1 -14 1 -4 -4 -15 -11 -24 -10
-12 -10 -14 -1 -8 9 5 11 2 7 -8 -3 -9 -10 -14 -15 -11 -4 3 -6 -3 -4 -15 2
-11 0 -22 -5 -25 -5 -3 -7 -12 -4 -19 3 -8 1 -17 -5 -20 -6 -4 -15 -25 -21
-46 -6 -22 -15 -40 -21 -40 -6 0 -8 -4 -4 -9 3 -5 1 -12 -5 -16 -6 -4 -8 -11
-5 -16 4 -5 2 -9 -4 -9 -5 0 -8 -9 -6 -20 2 -11 0 -18 -6 -15 -8 5 -10 1 -9
-20 0 -3 -9 -15 -20 -27 -11 -12 -20 -28 -20 -35 0 -7 -5 -13 -12 -13 -6 0 -9
-3 -5 -6 3 -4 -4 -15 -16 -26 -12 -11 -15 -16 -7 -13 8 4 -3 -10 -25 -30 -22
-21 -33 -34 -25 -30 8 5 2 -5 -15 -21 -16 -16 -33 -27 -37 -26 -7 2 -12 -13
-10 -29 1 -4 -12 -12 -28 -19 -16 -6 -31 -18 -34 -26 -3 -8 -12 -14 -21 -14
-8 0 -15 -4 -15 -9 0 -5 -9 -13 -20 -16 -11 -4 -18 -11 -15 -16 4 -5 1 -9 -5
-9 -6 0 -42 -18 -81 -40 -39 -22 -77 -40 -85 -40 -8 0 -14 -5 -14 -11 0 -5 -4
-8 -9 -5 -13 8 -42 -4 -35 -15 3 -5 -2 -6 -10 -3 -9 3 -16 2 -16 -2 0 -5 -12
-10 -26 -11 -15 0 -29 -5 -33 -11 -3 -5 -14 -8 -23 -6 -10 1 -18 -2 -18 -7 0
-6 -4 -8 -9 -4 -5 3 -12 1 -16 -4 -3 -6 -12 -8 -20 -4 -8 3 -15 1 -15 -5 0 -6
-11 -9 -25 -7 -14 1 -28 -2 -31 -7 -3 -5 -12 -7 -20 -4 -8 3 -14 1 -14 -3 0
-5 -7 -12 -16 -15 -10 -4 -13 -2 -8 6 5 7 3 8 -7 2 -16 -10 -20 -11 -55 -13
-14 0 -23 -5 -20 -10 3 -4 -5 -7 -19 -6 -13 2 -32 -3 -42 -10 -16 -12 -16 -13
10 -11 15 2 27 -1 27 -6 0 -5 9 -4 19 1 15 8 20 7 26 -6 5 -15 7 -15 15 -3 8
12 10 12 10 1 0 -7 6 -11 14 -8 7 3 19 0 25 -6 8 -8 11 -7 11 4 1 10 5 9 15
-5 11 -14 15 -16 15 -5 0 9 3 10 8 3 4 -6 15 -10 24 -8 10 1 20 -2 23 -6 3 -5
12 -7 20 -3 8 3 15 1 15 -4 0 -5 6 -10 13 -11 62 -7 80 -11 86 -19 3 -6 14 -9
24 -7 9 1 17 -1 17 -5 0 -4 21 -13 48 -20 26 -8 55 -21 65 -29 9 -8 20 -12 23
-9 4 3 15 -4 26 -16 11 -12 17 -15 13 -7 -4 9 -1 8 8 -3 9 -10 18 -18 21 -17
12 1 66 -31 66 -40 0 -5 6 -7 14 -4 7 3 16 -2 19 -10 4 -9 14 -16 22 -16 9 0
13 -4 10 -10 -3 -5 1 -10 9 -10 9 0 16 -8 16 -17 0 -9 3 -14 6 -10 9 9 94 -80
94 -98 0 -9 3 -14 8 -12 9 5 42 -30 35 -37 -4 -3 -1 -6 5 -6 7 0 12 -7 12 -15
0 -8 5 -15 10 -15 6 0 10 -7 10 -15 0 -8 5 -15 11 -15 5 0 7 -4 4 -10 -3 -5
-1 -10 4 -10 6 0 10 -3 9 -7 -3 -15 28 -73 36 -66 4 4 4 0 1 -9 -3 -8 1 -23
10 -31 8 -9 14 -20 13 -24 -1 -4 6 -25 15 -47 9 -21 14 -42 11 -47 -3 -5 0 -9
6 -9 6 0 8 -4 5 -10 -3 -5 -1 -10 4 -10 6 0 11 -13 11 -28 0 -16 3 -32 7 -36
4 -3 8 -17 10 -29 2 -12 6 -33 10 -47 3 -14 5 -31 4 -38 -1 -7 5 -15 14 -18
14 -6 14 -8 -2 -20 -12 -10 -14 -13 -4 -12 10 2 15 -8 16 -32 1 -19 6 -43 10
-52 4 -9 4 -22 0 -28 -3 -5 -2 -10 2 -10 5 0 9 -21 10 -46 1 -25 8 -53 15 -62
10 -12 10 -14 1 -8 -7 4 -13 2 -13 -3 0 -6 3 -11 8 -11 4 0 8 -19 8 -43 1 -23
4 -56 7 -74 3 -19 0 -34 -6 -37 -8 -3 -8 -5 1 -5 7 -1 11 -5 8 -10 -3 -5 1
-11 9 -14 10 -4 12 -1 8 10 -5 12 -3 14 8 8 11 -6 12 -5 2 6 -15 16 -17 33 -3
24 6 -3 10 -1 10 4 0 6 -6 11 -12 11 -10 0 -9 3 1 9 9 6 12 20 9 40 -2 17 -1
31 3 31 4 0 10 7 13 16 3 8 2 13 -2 10 -5 -3 -9 1 -9 9 0 8 3 12 7 10 4 -2 7
14 8 37 1 22 7 47 13 54 9 11 8 14 -2 14 -12 0 -12 2 0 9 7 5 11 13 7 19 -3 6
-2 13 3 17 5 3 8 14 6 25 -2 11 0 20 5 20 5 0 7 9 5 20 -2 11 1 20 6 20 6 0 7
5 4 10 -4 6 -2 17 4 24 6 7 9 21 5 30 -4 10 -1 16 7 16 7 0 9 3 6 7 -4 3 -2
12 4 20 9 10 8 13 -2 13 -11 0 -12 2 -1 9 7 4 14 14 15 22 2 8 7 20 11 28 7
10 6 12 -4 6 -8 -5 -4 5 8 22 12 17 22 40 22 50 0 11 3 23 8 27 4 4 7 11 7 14
1 16 31 72 38 72 5 0 5 4 2 10 -3 5 -2 10 4 10 5 0 8 9 6 20 -2 11 -1 19 3 16
4 -2 13 2 20 10 7 8 10 14 7 14 -3 0 -1 9 5 20 6 11 15 18 20 15 6 -3 7 1 4 9
-3 9 -1 16 5 16 6 0 11 6 11 14 0 8 7 16 15 20 8 3 15 11 15 17 0 7 15 27 34
45 19 18 31 35 28 38 -3 3 0 6 6 6 7 0 24 13 38 30 15 16 30 27 34 25 4 -3 10
5 13 16 3 12 10 18 16 14 6 -3 11 -2 11 4 0 5 17 20 38 32 20 13 39 27 40 31
2 4 10 8 18 8 8 0 17 7 20 15 4 8 10 13 14 10 5 -3 11 -1 15 5 3 5 15 10 26
10 11 0 17 5 14 10 -6 9 10 14 42 13 7 0 11 4 10 9 -1 6 7 12 18 14 11 1 21 8
23 14 2 5 8 8 13 4 5 -3 9 0 9 6 0 6 4 9 9 6 5 -3 21 1 37 9 15 7 31 12 36 9
4 -3 8 0 8 7 0 6 8 9 20 6 11 -3 18 -1 14 4 -5 8 9 13 29 10 4 0 7 4 7 10 0 5
5 7 10 4 6 -3 16 -3 23 2 6 4 18 9 25 10 6 2 18 5 25 7 6 2 27 7 45 11 17 4
32 13 32 19 0 6 5 4 10 -4 6 -9 10 -11 10 -3 0 7 7 10 15 7 8 -4 15 -1 15 4 0
6 9 9 20 7 11 -2 18 0 15 6 -4 5 -13 9 -21 9 -9 0 -12 5 -8 11 4 8 0 8 -15 0
-15 -8 -21 -9 -21 -1 0 6 -5 8 -10 5 -5 -3 -10 -2 -10 3 0 6 -9 8 -21 5 -12
-3 -24 -1 -28 5 -3 6 -18 13 -31 15 -14 2 -36 9 -50 14 -14 6 -28 9 -32 6 -5
-2 -8 1 -8 6 0 6 -5 11 -11 11 -5 0 -7 -6 -3 -12 4 -7 -2 -4 -14 6 -12 11 -22
15 -22 10 0 -5 -4 -4 -8 1 -8 12 -68 36 -97 40 -11 1 -19 8 -18 14 2 6 -6 11
-16 11 -11 0 -23 5 -26 10 -4 6 -10 8 -15 5 -4 -3 -11 2 -14 11 -3 8 -10 12
-16 9 -5 -3 -10 -1 -10 5 0 6 -5 8 -10 5 -6 -3 -13 1 -16 9 -3 9 -12 16 -20
16 -8 0 -14 5 -14 10 0 6 -9 10 -21 10 -11 0 -18 4 -14 9 3 5 -4 12 -15 16
-11 3 -20 11 -20 17 0 6 -3 9 -6 5 -8 -8 -34 18 -34 33 0 6 -4 9 -8 6 -5 -3
-15 4 -22 15 -8 10 -20 19 -27 19 -6 0 -15 9 -18 20 -3 11 -11 20 -16 20 -6 0
-7 5 -4 10 3 6 -1 10 -9 10 -15 0 -21 13 -16 35 1 5 -2 7 -6 3 -7 -8 -74 74
-74 91 0 5 -6 12 -12 14 -10 4 -10 6 -1 6 7 1 1 12 -13 26 -14 14 -23 29 -20
34 3 5 -1 12 -10 15 -8 3 -12 10 -9 16 3 5 1 10 -4 10 -6 0 -11 9 -11 21 0 11
-4 18 -9 15 -5 -4 -8 2 -7 11 2 10 -4 24 -13 31 -9 8 -10 11 -4 7 9 -4 11 -1
7 9 -3 9 -10 16 -16 16 -5 0 -7 4 -4 8 3 5 -4 23 -15 41 -11 18 -14 29 -7 25
10 -5 11 -4 1 7 -7 7 -13 21 -13 32 0 10 -4 16 -9 12 -6 -3 -8 4 -6 15 2 11
-3 27 -11 35 -12 11 -12 15 -2 15 10 0 9 3 -2 10 -8 5 -11 10 -6 10 4 0 1 12
-9 26 -9 15 -12 23 -6 20 6 -4 4 8 -4 27 -8 19 -11 37 -8 41 3 3 -2 14 -11 25
-13 15 -14 20 -4 24 11 4 11 6 0 6 -7 1 -10 6 -7 11 4 6 2 16 -3 23 -13 16
-18 59 -9 74 5 8 3 11 -5 8 -9 -4 -14 2 -15 17 -1 29 -10 65 -19 80 -5 7 -3 8
5 3 10 -6 10 -2 0 16 -7 13 -12 36 -11 52 1 15 -2 27 -8 27 -5 0 -7 7 -4 15 7
16 -11 21 -21 6z"/>
<path d="M680 3005 c0 -8 2 -15 4 -15 2 0 6 7 10 15 3 8 1 15 -4 15 -6 0 -10
-7 -10 -15z"/>
<path d="M3756 1402 c-9 -8 7 -32 18 -26 6 3 2 -2 -8 -10 -13 -10 -15 -16 -7
-16 11 0 11 -3 1 -15 -7 -8 -9 -15 -4 -15 4 0 3 -5 -4 -12 -7 -7 -8 -17 -1
-30 8 -14 6 -18 -8 -19 -10 0 -13 -3 -6 -6 9 -3 10 -10 3 -22 -5 -10 -6 -21
-3 -25 3 -3 1 -6 -6 -6 -7 0 -9 -5 -6 -10 4 -6 2 -16 -3 -23 -6 -7 -10 -16
-10 -20 -1 -16 -27 -67 -35 -67 -5 0 -5 -4 -2 -10 3 -5 1 -10 -5 -10 -6 0 -9
-4 -5 -9 3 -5 -4 -12 -15 -16 -11 -4 -18 -11 -15 -16 4 -5 0 -9 -7 -9 -7 0
-26 -13 -41 -30 -16 -16 -35 -30 -43 -30 -9 0 -13 -4 -9 -9 3 -6 -3 -8 -14 -6
-10 2 -34 -4 -53 -14 -18 -10 -39 -16 -47 -13 -9 3 -11 0 -6 -7 4 -8 1 -11 -8
-9 -9 2 -15 -1 -14 -7 1 -5 11 -10 22 -11 61 -6 75 -9 75 -17 0 -4 5 -5 10 -2
6 3 13 -1 16 -10 6 -13 8 -14 15 -3 7 10 9 10 9 1 0 -7 8 -13 18 -13 10 0 24
-9 32 -20 8 -11 18 -20 23 -20 5 0 15 -7 23 -15 9 -8 13 -15 10 -15 -3 0 6
-12 19 -26 14 -15 25 -35 25 -45 0 -11 7 -19 18 -19 14 0 15 -2 2 -10 -12 -7
-12 -10 -1 -10 7 0 11 -6 7 -15 -3 -8 -1 -15 5 -15 6 0 8 -4 4 -9 -3 -5 -1
-12 4 -16 5 -3 8 -14 6 -25 -2 -11 0 -20 6 -20 5 0 9 -5 9 -11 0 -5 -6 -7 -12
-3 -7 4 -5 -2 5 -13 14 -16 15 -22 5 -26 -11 -4 -11 -6 0 -6 7 -1 10 -5 7 -11
-3 -5 -1 -10 5 -10 6 0 8 -5 4 -12 -12 -19 -12 -48 0 -48 6 0 4 -5 -4 -10 -13
-8 -13 -10 1 -10 9 0 19 7 23 15 3 8 1 15 -5 15 -6 0 -7 5 -4 10 4 6 10 8 15
5 5 -3 12 0 16 6 4 8 3 9 -5 5 -8 -6 -11 3 -9 28 1 20 5 36 9 36 5 0 6 9 4 20
-2 11 0 20 6 20 5 0 8 3 7 8 -4 20 25 101 35 95 6 -4 8 0 4 10 -3 10 -2 17 3
17 6 0 10 5 10 10 0 6 8 18 18 29 9 10 25 29 35 42 9 13 17 20 17 17 0 -4 12
4 26 17 15 14 32 25 39 25 7 0 18 7 25 15 7 8 16 12 21 9 5 -3 9 0 9 6 0 6 5
8 10 5 6 -3 10 0 10 7 0 10 2 10 9 -1 7 -10 10 -10 13 -1 2 7 14 13 26 14 12
0 22 4 22 9 0 4 -3 7 -6 6 -3 0 -12 8 -21 18 -8 10 -12 13 -9 6 4 -6 -11 -3
-32 7 -22 11 -45 20 -52 22 -8 2 -24 13 -36 26 -12 12 -25 22 -30 22 -5 0 -18
12 -29 27 -11 15 -28 34 -37 42 -9 8 -15 18 -12 23 3 4 0 8 -5 8 -6 0 -11 9
-11 19 0 11 -5 21 -10 23 -6 2 -12 13 -13 26 0 12 -5 22 -10 22 -5 0 -7 9 -4
21 3 12 0 22 -8 25 -7 3 -12 14 -10 24 2 10 -2 23 -9 29 -14 12 -15 39 -1 60
5 10 4 12 -3 7 -11 -6 -16 10 -15 50 0 10 -23 15 -31 6z"/>
</g>
</svg>
